<?xml version="1.0" encoding="utf-8"?>
<!-- Generator: Adobe Illustrator 22.0.1, SVG Export Plug-In . SVG Version: 6.00 Build 0)  -->
<svg version="1.1" id="Calque_1" xmlns="http://www.w3.org/2000/svg" xmlns:xlink="http://www.w3.org/1999/xlink" x="0px" y="0px"
	 viewBox="0 0 51.3 50.7" style="enable-background:new 0 0 51.3 50.7;" xml:space="preserve">
<style type="text/css">
	.st0{fill:#706F6F;}
</style>
<g>
	<path class="st0" d="M25.4,21.2c-2.4,0-4.4,2-4.4,4.4s2,4.4,4.4,4.4s4.4-2,4.4-4.4S27.8,21.2,25.4,21.2z"/>
	<path class="st0" d="M30.9,14.8h-11c-1.6,0-3,0.5-3.9,1.4c-0.9,0.9-1.4,2.3-1.4,3.9v11c0,1.6,0.5,3,1.5,4c1,0.9,2.3,1.4,3.9,1.4
		h10.9c1.6,0,3-0.5,3.9-1.4c1-0.9,1.5-2.3,1.5-3.9v-11c0-1.6-0.5-2.9-1.4-3.9C33.8,15.3,32.5,14.8,30.9,14.8z M25.4,32.4
		c-3.8,0-6.8-3.1-6.8-6.8c0-3.8,3.1-6.8,6.8-6.8c3.8,0,6.8,3.1,6.8,6.8C32.2,29.3,29.2,32.4,25.4,32.4z M32.5,20.1
		c-0.9,0-1.6-0.7-1.6-1.6c0-0.9,0.7-1.6,1.6-1.6c0.9,0,1.6,0.7,1.6,1.6C34,19.4,33.3,20.1,32.5,20.1z"/>
	<path class="st0" d="M25.6,0.7C12,0.7,1,11.7,1,25.3C1,38.9,12,50,25.6,50c13.6,0,24.6-11,24.6-24.6C50.2,11.7,39.2,0.7,25.6,0.7z
		 M38.7,31.1c0,2.3-0.8,4.3-2.2,5.7c-1.4,1.4-3.4,2.1-5.6,2.1H19.9c-2.2,0-4.2-0.7-5.6-2.1c-1.5-1.4-2.2-3.4-2.2-5.7v-11
		c0-4.6,3.1-7.8,7.8-7.8h11c2.3,0,4.2,0.8,5.6,2.2c1.4,1.4,2.1,3.3,2.1,5.6V31.1z"/>
</g>
</svg>
