<?xml version="1.0" encoding="utf-8"?>
<!-- Generator: Adobe Illustrator 22.0.1, SVG Export Plug-In . SVG Version: 6.00 Build 0)  -->
<svg version="1.1" id="Calque_1" xmlns="http://www.w3.org/2000/svg" xmlns:xlink="http://www.w3.org/1999/xlink" x="0px" y="0px"
	 viewBox="0 0 51.3 50.7" style="enable-background:new 0 0 51.3 50.7;" xml:space="preserve">
<style type="text/css">
	.st0{fill:#706F6F;}
</style>
<g>
	<path class="st0" d="M26,0.5c-13.6,0-24.6,11-24.6,24.6c0,13.6,11,24.6,24.6,24.6c13.6,0,24.6-11,24.6-24.6
		C50.6,11.5,39.6,0.5,26,0.5z M39.7,37.1c0,1.1-0.9,2-2,2H14.2c-1.1,0-2-0.9-2-2V13.4c0-1.1,0.9-2,2-2h23.4c1.1,0,2,0.9,2,2V37.1z"
		/>
	<path class="st0" d="M30.7,21.8c-2.2,0-3.2,1.2-3.7,2.1v0h0c0,0,0,0,0,0v-1.8h-4.1c0.1,1.2,0,12.5,0,12.5H27v-7c0-0.4,0-0.7,0.1-1
		c0.3-0.7,1-1.5,2.1-1.5c1.5,0,2.1,1.1,2.1,2.8v6.7h4.2v-7.2C35.5,23.6,33.4,21.8,30.7,21.8z"/>
	<path class="st0" d="M18.5,16.1c-1.4,0-2.3,0.9-2.3,2.2c0,1.2,0.9,2.2,2.3,2.2h0c1.4,0,2.3-1,2.3-2.2C20.8,17,19.9,16.1,18.5,16.1z
		"/>
	<rect x="16.4" y="22.1" class="st0" width="4.2" height="12.5"/>
</g>
</svg>
